<svg width="200" height="132" viewBox="0 0 200 132" fill="none" xmlns="http://www.w3.org/2000/svg">
<circle cx="97.5" cy="66.5" r="58" fill="#FBD6AA" stroke="#F7C790" stroke-width="15"/>
<path d="M88.3906 100V97.9844C89.8281 97.7031 91.0312 97.4062 92 97.0938C93 96.7812 93.7969 96.4844 94.3906 96.2031C94.9844 95.8906 95.4062 95.6094 95.6562 95.3594C95.9375 95.0781 96.0781 94.8281 96.0781 94.6094V45.1562H82.0625C81.5938 45.1562 81.1562 45.25 80.75 45.4375C80.375 45.5938 79.9844 45.9531 79.5781 46.5156C79.2031 47.0781 78.7656 47.9062 78.2656 49C77.7656 50.0938 77.1719 51.5469 76.4844 53.3594L74.4688 52.4688C74.625 50.625 74.8281 48.6562 75.0781 46.5625C75.3594 44.4688 75.6719 42.5938 76.0156 40.9375H123.359L124.766 42.1094C124.703 43.7031 124.547 45.4531 124.297 47.3594C124.047 49.2344 123.734 51.1562 123.359 53.125H121.25C120.938 51.6875 120.656 50.4688 120.406 49.4688C120.188 48.4375 119.922 47.6094 119.609 46.9844C119.297 46.3281 118.922 45.8594 118.484 45.5781C118.078 45.2969 117.547 45.1562 116.891 45.1562H103.578V94.6094C103.578 95.0156 104.141 95.5312 105.266 96.1562C106.391 96.7812 108.391 97.3906 111.266 97.9844V100H88.3906Z" fill="#6B78EC"/>
<path d="M88.3906 100H85.3906V103H88.3906V100ZM88.3906 97.9844L87.8146 95.0402L85.3906 95.5145V97.9844H88.3906ZM92 97.0938L91.1052 94.2303L91.0921 94.2344L91.079 94.2386L92 97.0938ZM94.3906 96.2031L95.6749 98.9143L95.732 98.8873L95.7879 98.8579L94.3906 96.2031ZM96.0781 45.1562H99.0781V42.1562H96.0781V45.1562ZM80.75 45.4375L81.9038 48.2067L81.9559 48.185L82.0072 48.1614L80.75 45.4375ZM79.5781 46.5156L77.1461 44.7592L77.1132 44.8047L77.082 44.8515L79.5781 46.5156ZM76.4844 53.3594L75.2719 56.1034L78.1669 57.3826L79.2894 54.4233L76.4844 53.3594ZM74.4688 52.4688L71.4795 52.2154L71.2987 54.3479L73.2563 55.2128L74.4688 52.4688ZM75.0781 46.5625L72.1048 46.1631L72.1019 46.1849L72.0993 46.2068L75.0781 46.5625ZM76.0156 40.9375V37.9375H73.5743L73.0782 40.3279L76.0156 40.9375ZM123.359 40.9375L125.28 38.6328L124.446 37.9375H123.359V40.9375ZM124.766 42.1094L127.763 42.2269L127.821 40.7506L126.686 39.8047L124.766 42.1094ZM124.297 47.3594L127.271 47.7559L127.271 47.7495L124.297 47.3594ZM123.359 53.125V56.125H125.842L126.306 53.6863L123.359 53.125ZM121.25 53.125L118.318 53.7623L118.832 56.125H121.25V53.125ZM120.406 49.4688L117.472 50.0913L117.483 50.144L117.496 50.1964L120.406 49.4688ZM119.609 46.9844L116.901 48.2742L116.913 48.3002L116.926 48.326L119.609 46.9844ZM118.484 45.5781L116.777 48.0447L116.819 48.0739L116.862 48.1017L118.484 45.5781ZM103.578 45.1562V42.1562H100.578V45.1562H103.578ZM111.266 97.9844H114.266V95.5406L111.872 95.0464L111.266 97.9844ZM111.266 100V103H114.266V100H111.266ZM91.3906 100V97.9844H85.3906V100H91.3906ZM88.9667 100.929C90.4749 100.633 91.802 100.31 92.921 99.9489L91.079 94.2386C90.2605 94.5026 89.1813 94.7728 87.8146 95.0402L88.9667 100.929ZM92.8948 99.9572C93.9597 99.6244 94.9037 99.2797 95.6749 98.9143L93.1064 93.4919C92.6901 93.6891 92.0403 93.9381 91.1052 94.2303L92.8948 99.9572ZM95.7879 98.8579C96.4544 98.5071 97.2009 98.0573 97.7776 97.4807L93.5349 93.2381C93.5953 93.1777 93.5991 93.1877 93.4882 93.2617C93.3858 93.3299 93.226 93.426 92.9934 93.5484L95.7879 98.8579ZM97.7776 97.4807C98.203 97.0553 99.0781 96.066 99.0781 94.6094H93.0781C93.0781 94.0676 93.2519 93.6786 93.3579 93.4902C93.4621 93.3049 93.5509 93.2221 93.5349 93.2381L97.7776 97.4807ZM99.0781 94.6094V45.1562H93.0781V94.6094H99.0781ZM96.0781 42.1562H82.0625V48.1562H96.0781V42.1562ZM82.0625 42.1562C81.1808 42.1562 80.312 42.3355 79.4928 42.7136L82.0072 48.1614C82.0091 48.1605 82.0093 48.1604 82.0114 48.16C82.014 48.1594 82.0294 48.1562 82.0625 48.1562V42.1562ZM79.5962 42.6683C78.4641 43.14 77.6741 44.028 77.1461 44.7592L82.0102 48.2721C82.0675 48.1928 82.1142 48.1346 82.1495 48.0937C82.185 48.0526 82.2046 48.0342 82.207 48.032C82.2095 48.0296 82.1882 48.0497 82.1416 48.0811C82.0948 48.1126 82.0156 48.1601 81.9038 48.2067L79.5962 42.6683ZM77.082 44.8515C76.5758 45.6108 76.0609 46.6071 75.5372 47.7527L80.994 50.2473C81.4703 49.2054 81.8304 48.5455 82.0743 48.1797L77.082 44.8515ZM75.5372 47.7527C74.9983 48.9317 74.3781 50.4534 73.6794 52.2954L79.2894 54.4233C79.9657 52.6403 80.533 51.2558 80.994 50.2473L75.5372 47.7527ZM77.6969 50.6153L75.6812 49.7247L73.2563 55.2128L75.2719 56.1034L77.6969 50.6153ZM77.458 52.7221C77.611 50.9168 77.8105 48.9825 78.057 46.9182L72.0993 46.2068C71.8458 48.33 71.639 50.3332 71.4795 52.2154L77.458 52.7221ZM78.0514 46.9619C78.3254 44.9222 78.6268 43.1192 78.953 41.5471L73.0782 40.3279C72.717 42.0683 72.3933 44.0153 72.1048 46.1631L78.0514 46.9619ZM76.0156 43.9375H123.359V37.9375H76.0156V43.9375ZM121.439 43.2422L122.845 44.414L126.686 39.8047L125.28 38.6328L121.439 43.2422ZM121.768 41.9918C121.71 43.4782 121.563 45.1358 121.322 46.9693L127.271 47.7495C127.531 45.7704 127.697 43.928 127.763 42.2269L121.768 41.9918ZM121.323 46.9629C121.081 48.7796 120.778 50.6464 120.412 52.5637L126.306 53.6863C126.691 51.6661 127.013 49.6892 127.271 47.7559L121.323 46.9629ZM123.359 50.125H121.25V56.125H123.359V50.125ZM124.182 52.4877C123.865 51.0316 123.577 49.7808 123.317 48.7411L117.496 50.1964C117.736 51.1567 118.01 52.3434 118.318 53.7623L124.182 52.4877ZM123.341 48.8462C123.093 47.6783 122.761 46.5799 122.293 45.6427L116.926 48.326C117.083 48.6389 117.282 49.1967 117.472 50.0913L123.341 48.8462ZM122.318 45.6946C121.857 44.7258 121.165 43.7352 120.107 43.0546L116.862 48.1017C116.769 48.0415 116.736 47.996 116.751 48.0147C116.768 48.036 116.824 48.1122 116.901 48.2742L122.318 45.6946ZM120.192 43.1115C119.143 42.3854 117.96 42.1562 116.891 42.1562V48.1562C117.008 48.1562 117.041 48.1692 117.014 48.1618C116.981 48.1531 116.89 48.1229 116.777 48.0447L120.192 43.1115ZM116.891 42.1562H103.578V48.1562H116.891V42.1562ZM100.578 45.1562V94.6094H106.578V45.1562H100.578ZM100.578 94.6094C100.578 96.1465 101.565 97.1387 101.973 97.5122C102.505 98.0005 103.16 98.4185 103.809 98.7787L106.723 93.5338C106.499 93.4095 106.33 93.3055 106.207 93.2225C106.147 93.1816 106.102 93.149 106.071 93.1248C106.039 93.1004 106.026 93.0884 106.027 93.0893C106.028 93.0897 106.05 93.1101 106.085 93.1512C106.12 93.1916 106.179 93.2649 106.245 93.372C106.369 93.5767 106.578 94.0064 106.578 94.6094H100.578ZM103.809 98.7787C105.369 99.6456 107.768 100.325 110.659 100.922L111.872 95.0464C109.013 94.4558 107.412 93.9169 106.723 93.5338L103.809 98.7787ZM108.266 97.9844V100H114.266V97.9844H108.266ZM111.266 97H88.3906V103H111.266V97Z" fill="#515DC5"/>
<path d="M129.359 32.9375C128.734 33.25 128.047 33.5312 127.297 33.7812C126.547 34.0312 125.828 34.2344 125.141 34.3906L123.969 33.3594V20.2344H111.031L109.859 19.1094C110.016 18.4844 110.219 17.8125 110.469 17.0938C110.75 16.375 111.031 15.7031 111.312 15.0781H123.969V2.23438C124.562 2.04688 125.25 1.8125 126.031 1.53125C126.812 1.25 127.547 1.03125 128.234 0.875L129.359 1.95312V15.0781H142.344L143.469 16.2031C143.312 16.8281 143.094 17.5312 142.812 18.3125C142.562 19.0625 142.312 19.7031 142.062 20.2344H129.359V32.9375Z" fill="#6B78EC"/>
<path d="M129.359 32.9375L130.701 35.6208L132.359 34.7916V32.9375H129.359ZM125.141 34.3906L123.159 36.6428L124.31 37.6559L125.805 37.316L125.141 34.3906ZM123.969 33.3594H120.969V34.7156L121.987 35.6115L123.969 33.3594ZM123.969 20.2344H126.969V17.2344H123.969V20.2344ZM111.031 20.2344L108.954 22.3985L109.824 23.2344H111.031V20.2344ZM109.859 19.1094L106.949 18.3818L106.527 20.0691L107.782 21.2735L109.859 19.1094ZM110.469 17.0938L107.675 16.0006L107.654 16.054L107.635 16.1082L110.469 17.0938ZM111.312 15.0781V12.0781H109.373L108.577 13.847L111.312 15.0781ZM123.969 15.0781V18.0781H126.969V15.0781H123.969ZM123.969 2.23438L123.065 -0.626373L120.969 0.0357131V2.23438H123.969ZM128.234 0.875L130.31 -1.29096L129.144 -2.40828L127.57 -2.0504L128.234 0.875ZM129.359 1.95312H132.359V0.672932L131.435 -0.21284L129.359 1.95312ZM129.359 15.0781H126.359V18.0781H129.359V15.0781ZM142.344 15.0781L144.465 12.9568L143.586 12.0781H142.344V15.0781ZM143.469 16.2031L146.379 16.9307L146.791 15.2829L145.59 14.0818L143.469 16.2031ZM142.812 18.3125L139.99 17.2963L139.978 17.3299L139.966 17.3638L142.812 18.3125ZM142.062 20.2344V23.2344H143.966L144.777 21.5118L142.062 20.2344ZM129.359 20.2344V17.2344H126.359V20.2344H129.359ZM128.018 30.2542C127.535 30.4956 126.981 30.7244 126.348 30.9352L128.246 36.6273C129.113 36.3381 129.934 36.0044 130.701 35.6208L128.018 30.2542ZM126.348 30.9352C125.68 31.1578 125.057 31.3332 124.476 31.4652L125.805 37.316C126.6 37.1356 127.413 36.9047 128.246 36.6273L126.348 30.9352ZM127.123 32.1385L125.951 31.1072L121.987 35.6115L123.159 36.6428L127.123 32.1385ZM126.969 33.3594V20.2344H120.969V33.3594H126.969ZM123.969 17.2344H111.031V23.2344H123.969V17.2344ZM113.109 18.0702L111.937 16.9452L107.782 21.2735L108.954 22.3985L113.109 18.0702ZM112.77 19.837C112.901 19.313 113.077 18.728 113.302 18.0793L107.635 16.1082C107.361 16.897 107.13 17.6558 106.949 18.3818L112.77 19.837ZM113.262 18.1869C113.528 17.509 113.79 16.8835 114.048 16.3092L108.577 13.847C108.273 14.5227 107.972 15.241 107.675 16.0006L113.262 18.1869ZM111.312 18.0781H123.969V12.0781H111.312V18.0781ZM126.969 15.0781V2.23438H120.969V15.0781H126.969ZM124.872 5.09512C125.514 4.8925 126.24 4.64448 127.047 4.35391L125.015 -1.29141C124.26 -1.01948 123.611 -0.798752 123.065 -0.626373L124.872 5.09512ZM127.047 4.35391C127.733 4.10698 128.35 3.92534 128.899 3.8004L127.57 -2.0504C126.744 -1.86284 125.892 -1.60698 125.015 -1.29141L127.047 4.35391ZM126.159 3.04096L127.284 4.11909L131.435 -0.21284L130.31 -1.29096L126.159 3.04096ZM126.359 1.95312V15.0781H132.359V1.95312H126.359ZM129.359 18.0781H142.344V12.0781H129.359V18.0781ZM140.222 17.1994L141.347 18.3244L145.59 14.0818L144.465 12.9568L140.222 17.1994ZM140.558 15.4755C140.432 15.9798 140.246 16.5843 139.99 17.2963L145.635 19.3287C145.941 18.4782 146.193 17.6764 146.379 16.9307L140.558 15.4755ZM139.966 17.3638C139.742 18.0374 139.534 18.5619 139.348 18.957L144.777 21.5118C145.091 20.8443 145.383 20.0876 145.659 19.2612L139.966 17.3638ZM142.062 17.2344H129.359V23.2344H142.062V17.2344ZM126.359 20.2344V32.9375H132.359V20.2344H126.359Z" fill="#515DC5"/>
<g filter="url(#filter0_d_0_1)">
<path d="M4.41992 123V122.287C4.86263 122.196 5.19466 122.098 5.41602 121.994C5.64388 121.883 5.75781 121.783 5.75781 121.691V111.691C5.51042 111.724 5.27279 111.757 5.04492 111.789C4.82357 111.822 4.61523 111.854 4.41992 111.887L4.29297 110.988C4.64453 110.904 5.03516 110.826 5.46484 110.754C5.89453 110.682 6.34049 110.62 6.80273 110.568C7.27148 110.516 7.74023 110.477 8.20898 110.451C8.68424 110.419 9.13672 110.402 9.56641 110.402C10.3216 110.402 11.0085 110.477 11.627 110.627C12.252 110.777 12.7858 110.998 13.2285 111.291C13.6712 111.584 14.013 111.945 14.2539 112.375C14.4948 112.805 14.6152 113.299 14.6152 113.859C14.6152 114.309 14.5534 114.722 14.4297 115.1C14.306 115.477 14.1367 115.816 13.9219 116.115C13.7135 116.415 13.4694 116.678 13.1895 116.906C12.916 117.134 12.623 117.323 12.3105 117.473C12.0046 117.622 11.6921 117.736 11.373 117.814C11.0605 117.886 10.7611 117.922 10.4746 117.922C10.1751 117.922 9.88216 117.899 9.5957 117.854C9.30924 117.801 9.05534 117.727 8.83398 117.629L8.53125 116.604C8.79818 116.727 9.03255 116.809 9.23438 116.848C9.44271 116.88 9.66081 116.896 9.88867 116.896C10.1686 116.896 10.4453 116.848 10.7188 116.75C10.9922 116.646 11.2331 116.486 11.4414 116.271C11.6562 116.057 11.8288 115.783 11.959 115.451C12.0892 115.119 12.1543 114.722 12.1543 114.26C12.1543 113.798 12.0762 113.391 11.9199 113.039C11.7702 112.688 11.5553 112.395 11.2754 112.16C11.002 111.919 10.6732 111.74 10.2891 111.623C9.90495 111.499 9.47852 111.438 9.00977 111.438C8.87956 111.438 8.74609 111.441 8.60938 111.447C8.47917 111.447 8.34245 111.451 8.19922 111.457V121.691C8.19922 121.73 8.21875 121.773 8.25781 121.818C8.30339 121.864 8.38477 121.913 8.50195 121.965C8.62565 122.017 8.79492 122.069 9.00977 122.121C9.22461 122.173 9.5013 122.229 9.83984 122.287V123H4.41992ZM22.75 118.703C22.75 118.189 22.6947 117.701 22.584 117.238C22.4798 116.77 22.3301 116.359 22.1348 116.008C21.9395 115.65 21.7018 115.367 21.4219 115.158C21.1484 114.95 20.8457 114.846 20.5137 114.846C20.11 114.846 19.7747 114.937 19.5078 115.119C19.2409 115.295 19.0293 115.542 18.873 115.861C18.7168 116.174 18.6061 116.548 18.541 116.984C18.4824 117.414 18.4531 117.88 18.4531 118.381C18.4531 118.895 18.5117 119.377 18.6289 119.826C18.7526 120.275 18.9154 120.666 19.1172 120.998C19.3255 121.33 19.5632 121.594 19.8301 121.789C20.1035 121.978 20.39 122.072 20.6895 122.072C21.0801 122.072 21.4056 121.997 21.666 121.848C21.9264 121.698 22.138 121.48 22.3008 121.193C22.4635 120.907 22.5775 120.555 22.6426 120.139C22.7142 119.722 22.75 119.243 22.75 118.703ZM25.2109 118.264C25.2109 118.7 25.1523 119.126 25.0352 119.543C24.918 119.96 24.752 120.354 24.5371 120.725C24.3288 121.096 24.0781 121.441 23.7852 121.76C23.4922 122.072 23.1667 122.342 22.8086 122.57C22.457 122.798 22.0762 122.974 21.666 123.098C21.2624 123.228 20.8457 123.293 20.416 123.293C19.7454 123.293 19.1367 123.176 18.5898 122.941C18.043 122.707 17.5775 122.385 17.1934 121.975C16.8092 121.564 16.5098 121.076 16.2949 120.51C16.0866 119.943 15.9824 119.328 15.9824 118.664C15.9824 118.02 16.0996 117.395 16.334 116.789C16.5749 116.184 16.9069 115.646 17.3301 115.178C17.7598 114.709 18.2676 114.335 18.8535 114.055C19.446 113.768 20.0938 113.625 20.7969 113.625C21.4609 113.625 22.0632 113.742 22.6035 113.977C23.1504 114.211 23.6159 114.536 24 114.953C24.3906 115.363 24.6901 115.852 24.8984 116.418C25.1068 116.984 25.2109 117.6 25.2109 118.264ZM33.043 121.486C32.1771 122.111 31.4447 122.57 30.8457 122.863C30.2467 123.15 29.7747 123.293 29.4297 123.293C29.1497 123.293 28.8828 123.238 28.6289 123.127C28.3815 123.023 28.1634 122.86 27.9746 122.639C27.7923 122.417 27.6458 122.141 27.5352 121.809C27.4245 121.47 27.3691 121.073 27.3691 120.617V115.139H26.1875L25.9043 114.787L26.666 113.918H27.3691V111.877L29.3418 110.422L29.7129 110.744V113.918H32.6914L33.043 114.27C32.9844 114.38 32.9095 114.497 32.8184 114.621C32.7337 114.738 32.6458 114.855 32.5547 114.973C32.4635 115.083 32.3724 115.184 32.2812 115.275C32.1966 115.367 32.1217 115.435 32.0566 115.48C31.9785 115.441 31.8776 115.402 31.7539 115.363C31.6367 115.324 31.5033 115.288 31.3535 115.256C31.2038 115.217 31.0443 115.188 30.875 115.168C30.7122 115.148 30.543 115.139 30.3672 115.139H29.7129V119.709C29.7129 120.041 29.7324 120.324 29.7715 120.559C29.8105 120.786 29.8659 120.972 29.9375 121.115C30.0156 121.252 30.1035 121.353 30.2012 121.418C30.3053 121.477 30.4193 121.506 30.543 121.506C30.6602 121.506 30.7806 121.496 30.9043 121.477C31.0345 121.451 31.181 121.411 31.3438 121.359C31.5065 121.307 31.6888 121.236 31.8906 121.145C32.099 121.047 32.3398 120.923 32.6133 120.773L33.043 121.486ZM38.248 114.797C37.9421 114.797 37.6784 114.855 37.457 114.973C37.2357 115.09 37.0469 115.259 36.8906 115.48C36.7409 115.702 36.6204 115.969 36.5293 116.281C36.4447 116.594 36.3828 116.945 36.3438 117.336H39.5957C39.7454 117.336 39.8431 117.313 39.8887 117.268C39.9408 117.215 39.9668 117.121 39.9668 116.984C39.9668 116.789 39.9408 116.568 39.8887 116.32C39.8366 116.066 39.7422 115.829 39.6055 115.607C39.4753 115.38 39.2995 115.188 39.0781 115.031C38.8568 114.875 38.5801 114.797 38.248 114.797ZM42.3008 117.629C42.2422 117.694 42.1576 117.766 42.0469 117.844C41.9362 117.922 41.8158 117.997 41.6855 118.068C41.5553 118.14 41.4219 118.208 41.2852 118.273C41.1549 118.339 41.0378 118.391 40.9336 118.43H36.3145C36.3275 118.898 36.3893 119.331 36.5 119.729C36.6172 120.119 36.7799 120.458 36.9883 120.744C37.1966 121.031 37.4473 121.255 37.7402 121.418C38.0397 121.574 38.3815 121.652 38.7656 121.652C38.9674 121.652 39.1628 121.643 39.3516 121.623C39.5469 121.597 39.7552 121.542 39.9766 121.457C40.2044 121.372 40.4583 121.255 40.7383 121.105C41.0182 120.949 41.3503 120.738 41.7344 120.471C41.7734 120.49 41.819 120.529 41.8711 120.588C41.9297 120.646 41.9818 120.712 42.0273 120.783C42.0794 120.848 42.125 120.91 42.1641 120.969C42.2031 121.027 42.2292 121.07 42.2422 121.096C41.793 121.551 41.3893 121.923 41.0312 122.209C40.6732 122.495 40.3281 122.72 39.9961 122.883C39.6706 123.039 39.3451 123.146 39.0195 123.205C38.694 123.264 38.3359 123.293 37.9453 123.293C37.3919 123.293 36.8678 123.182 36.373 122.961C35.8848 122.74 35.4551 122.427 35.084 122.023C34.7194 121.62 34.4297 121.135 34.2148 120.568C34 120.002 33.8926 119.374 33.8926 118.684C33.8926 117.798 34.0586 117.01 34.3906 116.32C34.7292 115.624 35.2337 115.031 35.9043 114.543C36.0736 114.419 36.2624 114.302 36.4707 114.191C36.6855 114.074 36.9069 113.977 37.1348 113.898C37.3691 113.814 37.61 113.749 37.8574 113.703C38.1048 113.651 38.3522 113.625 38.5996 113.625C39.2376 113.625 39.7878 113.736 40.25 113.957C40.7188 114.178 41.1029 114.475 41.4023 114.846C41.7083 115.21 41.9329 115.633 42.0762 116.115C42.2259 116.597 42.3008 117.102 42.3008 117.629ZM49.4199 123V122.287C49.8887 122.163 50.2207 122.056 50.416 121.965C50.6113 121.874 50.709 121.783 50.709 121.691V117.258C50.709 116.9 50.6895 116.604 50.6504 116.369C50.6178 116.128 50.5625 115.936 50.4844 115.793C50.4062 115.65 50.3021 115.549 50.1719 115.49C50.0417 115.432 49.8789 115.402 49.6836 115.402C49.5273 115.402 49.3613 115.425 49.1855 115.471C49.0098 115.51 48.8145 115.581 48.5996 115.686C48.3913 115.783 48.1569 115.92 47.8965 116.096C47.6426 116.271 47.3594 116.493 47.0469 116.76V121.691C47.0469 121.789 47.1576 121.89 47.3789 121.994C47.6003 122.098 47.9225 122.196 48.3457 122.287V123H43.4141V122.287C43.8438 122.176 44.166 122.079 44.3809 121.994C44.5957 121.903 44.7031 121.802 44.7031 121.691V116.271C44.7031 116.018 44.6966 115.816 44.6836 115.666C44.6771 115.516 44.6348 115.399 44.5566 115.314C44.4785 115.23 44.3516 115.168 44.1758 115.129C44 115.09 43.7461 115.051 43.4141 115.012V114.328C43.7266 114.296 44.0163 114.257 44.2832 114.211C44.5566 114.165 44.8171 114.117 45.0645 114.064C45.3118 114.006 45.5527 113.941 45.7871 113.869C46.0215 113.798 46.2559 113.716 46.4902 113.625L46.9004 114.035L47.0078 115.441C47.7695 114.79 48.4792 114.325 49.1367 114.045C49.8008 113.765 50.3867 113.625 50.8945 113.625C51.1745 113.625 51.4447 113.671 51.7051 113.762C51.9655 113.846 52.1934 113.99 52.3887 114.191C52.5905 114.387 52.75 114.644 52.8672 114.963C52.9909 115.282 53.0527 115.669 53.0527 116.125V121.691C53.0527 121.737 53.0723 121.783 53.1113 121.828C53.1504 121.867 53.2188 121.91 53.3164 121.955C53.4141 122.001 53.5475 122.053 53.7168 122.111C53.8861 122.163 54.0977 122.222 54.3516 122.287V123H49.4199ZM63.2871 121.145C62.8639 121.626 62.4733 122.01 62.1152 122.297C61.7572 122.577 61.4154 122.792 61.0898 122.941C60.7708 123.091 60.4616 123.186 60.1621 123.225C59.8626 123.27 59.5599 123.293 59.2539 123.293C58.7266 123.293 58.2188 123.189 57.7305 122.98C57.2422 122.766 56.8092 122.46 56.4316 122.062C56.0605 121.665 55.7611 121.18 55.5332 120.607C55.3118 120.035 55.2012 119.387 55.2012 118.664C55.2012 117.961 55.3314 117.303 55.5918 116.691C55.8522 116.079 56.2135 115.549 56.6758 115.1C57.1445 114.644 57.7012 114.286 58.3457 114.025C58.9902 113.758 59.6999 113.625 60.4746 113.625C60.6895 113.625 60.9303 113.645 61.1973 113.684C61.4707 113.716 61.7376 113.768 61.998 113.84C62.2585 113.905 62.4961 113.986 62.7109 114.084C62.9323 114.175 63.0983 114.279 63.209 114.396C63.2155 114.449 63.2057 114.54 63.1797 114.67C63.1602 114.8 63.1276 114.95 63.082 115.119C63.043 115.288 62.9941 115.467 62.9355 115.656C62.877 115.845 62.8184 116.024 62.7598 116.193C62.7012 116.363 62.6426 116.516 62.584 116.652C62.5254 116.789 62.4766 116.887 62.4375 116.945L61.7832 116.848C61.5684 116.21 61.3047 115.718 60.9922 115.373C60.6797 115.021 60.263 114.846 59.7422 114.846C59.4557 114.846 59.179 114.911 58.9121 115.041C58.6517 115.171 58.4206 115.38 58.2188 115.666C58.0169 115.946 57.8542 116.307 57.7305 116.75C57.6068 117.193 57.5449 117.73 57.5449 118.361C57.5449 118.882 57.61 119.348 57.7402 119.758C57.877 120.161 58.0592 120.503 58.2871 120.783C58.5215 121.063 58.7949 121.278 59.1074 121.428C59.4199 121.577 59.752 121.652 60.1035 121.652C60.2858 121.652 60.4616 121.643 60.6309 121.623C60.8001 121.597 60.9857 121.545 61.1875 121.467C61.3893 121.389 61.6139 121.275 61.8613 121.125C62.1152 120.975 62.4147 120.773 62.7598 120.52L63.2871 121.145ZM64.3027 123V122.287C64.7454 122.196 65.071 122.098 65.2793 121.994C65.4876 121.883 65.5918 121.783 65.5918 121.691V116.672C65.5918 116.34 65.5885 116.073 65.582 115.871C65.5755 115.663 65.5332 115.503 65.4551 115.393C65.3835 115.275 65.2598 115.191 65.084 115.139C64.9082 115.087 64.6478 115.044 64.3027 115.012V114.328C64.8626 114.25 65.3932 114.156 65.8945 114.045C66.3958 113.928 66.8678 113.788 67.3105 113.625H67.9355V121.691C67.9355 121.77 68.0332 121.867 68.2285 121.984C68.4238 122.095 68.7591 122.196 69.2344 122.287V123H64.3027ZM68.3066 110.686C68.3066 110.907 68.2643 111.109 68.1797 111.291C68.0951 111.473 67.9779 111.63 67.8281 111.76C67.6849 111.89 67.5124 111.991 67.3105 112.062C67.1152 112.134 66.9004 112.17 66.666 112.17C66.4837 112.17 66.3112 112.15 66.1484 112.111C65.9857 112.066 65.8424 111.997 65.7188 111.906C65.6016 111.815 65.5072 111.704 65.4355 111.574C65.3639 111.438 65.3281 111.275 65.3281 111.086C65.3281 110.865 65.3704 110.663 65.4551 110.48C65.5397 110.298 65.6536 110.145 65.7969 110.021C65.9466 109.891 66.1191 109.79 66.3145 109.719C66.5163 109.647 66.7311 109.611 66.959 109.611C67.1348 109.611 67.304 109.634 67.4668 109.68C67.6296 109.719 67.7728 109.784 67.8965 109.875C68.0202 109.96 68.1178 110.07 68.1895 110.207C68.2676 110.337 68.3066 110.497 68.3066 110.686ZM73.7266 121.584C73.8503 121.584 73.9805 121.571 74.1172 121.545C74.2539 121.512 74.4036 121.46 74.5664 121.389C74.7357 121.311 74.918 121.206 75.1133 121.076C75.3151 120.939 75.5397 120.767 75.7871 120.559V118.4C75.3965 118.465 75.0677 118.531 74.8008 118.596C74.5339 118.654 74.3092 118.716 74.127 118.781C73.9447 118.846 73.7949 118.915 73.6777 118.986C73.5671 119.058 73.4694 119.136 73.3848 119.221C73.2155 119.39 73.0788 119.572 72.9746 119.768C72.8704 119.963 72.8184 120.197 72.8184 120.471C72.8184 120.692 72.8477 120.874 72.9062 121.018C72.9714 121.161 73.0495 121.275 73.1406 121.359C73.2383 121.444 73.3392 121.503 73.4434 121.535C73.5475 121.568 73.6419 121.584 73.7266 121.584ZM79.625 121.906C79.3516 122.095 79.0651 122.274 78.7656 122.443C78.4727 122.613 78.1927 122.762 77.9258 122.893C77.6654 123.016 77.4245 123.114 77.2031 123.186C76.9883 123.257 76.8223 123.293 76.7051 123.293C76.4642 123.293 76.2591 123.156 76.0898 122.883C75.9271 122.609 75.8294 122.229 75.7969 121.74C75.5039 122.033 75.2077 122.281 74.9082 122.482C74.6152 122.678 74.3288 122.837 74.0488 122.961C73.7754 123.078 73.5117 123.163 73.2578 123.215C73.0039 123.267 72.7728 123.293 72.5645 123.293C72.291 123.293 72.0208 123.244 71.7539 123.146C71.4935 123.055 71.2559 122.919 71.041 122.736C70.8327 122.548 70.6634 122.313 70.5332 122.033C70.403 121.747 70.3379 121.415 70.3379 121.037C70.3379 120.594 70.416 120.22 70.5723 119.914C70.735 119.602 70.9368 119.325 71.1777 119.084C71.334 118.928 71.513 118.778 71.7148 118.635C71.9232 118.485 72.1966 118.342 72.5352 118.205C72.8802 118.068 73.3099 117.938 73.8242 117.814C74.3451 117.684 74.9993 117.561 75.7871 117.443V116.291C75.7871 116.089 75.7676 115.904 75.7285 115.734C75.6895 115.559 75.6211 115.409 75.5234 115.285C75.4258 115.161 75.2956 115.067 75.1328 115.002C74.9701 114.93 74.765 114.895 74.5176 114.895C74.3613 114.895 74.2051 114.924 74.0488 114.982C73.8926 115.041 73.7559 115.126 73.6387 115.236C73.5215 115.34 73.4271 115.471 73.3555 115.627C73.2904 115.777 73.2676 115.949 73.2871 116.145C73.2936 116.184 73.2415 116.232 73.1309 116.291C73.0202 116.35 72.8802 116.411 72.7109 116.477C72.5417 116.535 72.3529 116.597 72.1445 116.662C71.9427 116.721 71.7474 116.773 71.5586 116.818C71.3698 116.857 71.2005 116.89 71.0508 116.916C70.901 116.936 70.8001 116.939 70.748 116.926L70.543 116.398C70.6992 116.008 70.9434 115.646 71.2754 115.314C71.6139 114.976 72.0078 114.683 72.457 114.436C72.9062 114.182 73.3945 113.983 73.9219 113.84C74.4557 113.697 74.9928 113.625 75.5332 113.625C75.9824 113.625 76.3698 113.684 76.6953 113.801C77.0208 113.918 77.2878 114.084 77.4961 114.299C77.7109 114.507 77.8704 114.755 77.9746 115.041C78.0788 115.327 78.1309 115.637 78.1309 115.969V120.676C78.1309 120.949 78.1667 121.145 78.2383 121.262C78.3099 121.379 78.4043 121.438 78.5215 121.438C78.5671 121.438 78.6126 121.434 78.6582 121.428C78.7103 121.421 78.7689 121.408 78.834 121.389C78.9056 121.369 78.987 121.343 79.0781 121.311C79.1693 121.271 79.2799 121.226 79.4102 121.174L79.625 121.906ZM86.1777 123V122.287C86.6465 122.163 86.9785 122.056 87.1738 121.965C87.3691 121.874 87.4668 121.783 87.4668 121.691V117.258C87.4668 116.9 87.4473 116.604 87.4082 116.369C87.3757 116.128 87.3203 115.936 87.2422 115.793C87.1641 115.65 87.0599 115.549 86.9297 115.49C86.7995 115.432 86.6367 115.402 86.4414 115.402C86.2852 115.402 86.1191 115.425 85.9434 115.471C85.7676 115.51 85.5723 115.581 85.3574 115.686C85.1491 115.783 84.9147 115.92 84.6543 116.096C84.4004 116.271 84.1172 116.493 83.8047 116.76V121.691C83.8047 121.789 83.9154 121.89 84.1367 121.994C84.3581 122.098 84.6803 122.196 85.1035 122.287V123H80.1719V122.287C80.6016 122.176 80.9238 122.079 81.1387 121.994C81.3535 121.903 81.4609 121.802 81.4609 121.691V116.271C81.4609 116.018 81.4544 115.816 81.4414 115.666C81.4349 115.516 81.3926 115.399 81.3145 115.314C81.2363 115.23 81.1094 115.168 80.9336 115.129C80.7578 115.09 80.5039 115.051 80.1719 115.012V114.328C80.4844 114.296 80.7741 114.257 81.041 114.211C81.3145 114.165 81.5749 114.117 81.8223 114.064C82.0697 114.006 82.3105 113.941 82.5449 113.869C82.7793 113.798 83.0137 113.716 83.248 113.625L83.6582 114.035L83.7656 115.441C84.5273 114.79 85.237 114.325 85.8945 114.045C86.5586 113.765 87.1445 113.625 87.6523 113.625C87.9323 113.625 88.2025 113.671 88.4629 113.762C88.7233 113.846 88.9512 113.99 89.1465 114.191C89.3483 114.387 89.5078 114.644 89.625 114.963C89.7487 115.282 89.8105 115.669 89.8105 116.125V121.691C89.8105 121.737 89.8301 121.783 89.8691 121.828C89.9082 121.867 89.9766 121.91 90.0742 121.955C90.1719 122.001 90.3053 122.053 90.4746 122.111C90.6439 122.163 90.8555 122.222 91.1094 122.287V123H86.1777ZM102.467 121.887C102.167 122.089 101.865 122.274 101.559 122.443C101.253 122.613 100.966 122.762 100.699 122.893C100.439 123.016 100.208 123.114 100.006 123.186C99.804 123.257 99.6576 123.293 99.5664 123.293C99.0977 123.293 98.7982 122.723 98.668 121.584C98.3685 121.89 98.0918 122.15 97.8379 122.365C97.5905 122.58 97.3464 122.756 97.1055 122.893C96.8646 123.029 96.6172 123.13 96.3633 123.195C96.1094 123.26 95.8327 123.293 95.5332 123.293C95.097 123.293 94.6641 123.189 94.2344 122.98C93.8112 122.766 93.4303 122.46 93.0918 122.062C92.7533 121.665 92.4798 121.18 92.2715 120.607C92.0632 120.035 91.959 119.387 91.959 118.664C91.959 118.013 92.0729 117.385 92.3008 116.779C92.5352 116.167 92.8607 115.63 93.2773 115.168C93.7005 114.699 94.2018 114.325 94.7812 114.045C95.3672 113.765 96.0085 113.625 96.7051 113.625C97.0111 113.625 97.3138 113.661 97.6133 113.732C97.9193 113.804 98.248 113.96 98.5996 114.201V110.852C98.5996 110.493 98.5931 110.21 98.5801 110.002C98.5736 109.787 98.528 109.624 98.4434 109.514C98.3652 109.396 98.235 109.318 98.0527 109.279C97.8704 109.234 97.6068 109.198 97.2617 109.172V108.498C97.9779 108.426 98.6224 108.332 99.1953 108.215C99.7747 108.091 100.234 107.974 100.572 107.863L100.943 108.225V120.08C100.943 120.308 100.947 120.5 100.953 120.656C100.966 120.812 100.979 120.939 100.992 121.037C101.012 121.135 101.035 121.21 101.061 121.262C101.093 121.314 101.129 121.353 101.168 121.379C101.207 121.398 101.249 121.415 101.295 121.428C101.34 121.434 101.399 121.434 101.471 121.428C101.549 121.415 101.643 121.389 101.754 121.35C101.871 121.311 102.018 121.252 102.193 121.174L102.467 121.887ZM98.5996 120.373V116.105C98.3652 115.728 98.0723 115.435 97.7207 115.227C97.3757 115.018 96.985 114.914 96.5488 114.914C96.2233 114.914 95.9238 114.976 95.6504 115.1C95.377 115.223 95.1393 115.419 94.9375 115.686C94.7422 115.946 94.5859 116.278 94.4688 116.682C94.3581 117.085 94.3027 117.57 94.3027 118.137C94.3027 118.658 94.3678 119.123 94.498 119.533C94.6283 119.937 94.7975 120.282 95.0059 120.568C95.2142 120.848 95.4518 121.063 95.7188 121.213C95.9857 121.363 96.2526 121.438 96.5195 121.438C96.8776 121.438 97.2161 121.35 97.5352 121.174C97.8607 120.992 98.2155 120.725 98.5996 120.373ZM109.938 118.703C109.938 118.189 109.882 117.701 109.771 117.238C109.667 116.77 109.518 116.359 109.322 116.008C109.127 115.65 108.889 115.367 108.609 115.158C108.336 114.95 108.033 114.846 107.701 114.846C107.298 114.846 106.962 114.937 106.695 115.119C106.428 115.295 106.217 115.542 106.061 115.861C105.904 116.174 105.794 116.548 105.729 116.984C105.67 117.414 105.641 117.88 105.641 118.381C105.641 118.895 105.699 119.377 105.816 119.826C105.94 120.275 106.103 120.666 106.305 120.998C106.513 121.33 106.751 121.594 107.018 121.789C107.291 121.978 107.577 122.072 107.877 122.072C108.268 122.072 108.593 121.997 108.854 121.848C109.114 121.698 109.326 121.48 109.488 121.193C109.651 120.907 109.765 120.555 109.83 120.139C109.902 119.722 109.938 119.243 109.938 118.703ZM112.398 118.264C112.398 118.7 112.34 119.126 112.223 119.543C112.105 119.96 111.939 120.354 111.725 120.725C111.516 121.096 111.266 121.441 110.973 121.76C110.68 122.072 110.354 122.342 109.996 122.57C109.645 122.798 109.264 122.974 108.854 123.098C108.45 123.228 108.033 123.293 107.604 123.293C106.933 123.293 106.324 123.176 105.777 122.941C105.23 122.707 104.765 122.385 104.381 121.975C103.997 121.564 103.697 121.076 103.482 120.51C103.274 119.943 103.17 119.328 103.17 118.664C103.17 118.02 103.287 117.395 103.521 116.789C103.762 116.184 104.094 115.646 104.518 115.178C104.947 114.709 105.455 114.335 106.041 114.055C106.633 113.768 107.281 113.625 107.984 113.625C108.648 113.625 109.251 113.742 109.791 113.977C110.338 114.211 110.803 114.536 111.188 114.953C111.578 115.363 111.878 115.852 112.086 116.418C112.294 116.984 112.398 117.6 112.398 118.264ZM118.443 123V122.287C118.886 122.196 119.218 122.098 119.439 121.994C119.667 121.883 119.781 121.783 119.781 121.691V111.701C119.547 111.734 119.316 111.766 119.088 111.799C118.867 111.825 118.652 111.854 118.443 111.887L118.316 110.988C119.007 110.839 119.755 110.705 120.562 110.588C121.376 110.464 122.252 110.402 123.189 110.402C124.075 110.402 124.827 110.477 125.445 110.627C126.07 110.777 126.578 110.985 126.969 111.252C127.366 111.519 127.652 111.835 127.828 112.199C128.01 112.557 128.102 112.945 128.102 113.361C128.102 113.811 128.033 114.224 127.896 114.602C127.766 114.973 127.581 115.311 127.34 115.617C127.105 115.917 126.819 116.18 126.48 116.408C126.148 116.63 125.781 116.809 125.377 116.945L128.453 121.203C128.557 121.34 128.655 121.451 128.746 121.535C128.844 121.62 128.948 121.685 129.059 121.73C129.176 121.77 129.309 121.792 129.459 121.799C129.615 121.805 129.804 121.799 130.025 121.779L130.172 122.492C129.957 122.564 129.716 122.639 129.449 122.717C129.182 122.788 128.915 122.857 128.648 122.922C128.388 122.987 128.144 123.039 127.916 123.078C127.695 123.117 127.522 123.137 127.398 123.137C127.21 123.137 127.024 123.085 126.842 122.98C126.666 122.876 126.533 122.749 126.441 122.6L123.639 117.277C123.574 117.284 123.508 117.287 123.443 117.287H123.258C123.089 117.287 122.919 117.281 122.75 117.268C122.581 117.248 122.405 117.219 122.223 117.18V121.691C122.223 121.77 122.327 121.867 122.535 121.984C122.75 122.095 123.095 122.196 123.57 122.287V123H118.443ZM122.76 111.438C122.675 111.438 122.587 111.441 122.496 111.447C122.405 111.447 122.314 111.451 122.223 111.457V116.105C122.398 116.138 122.551 116.158 122.682 116.164C122.812 116.171 122.949 116.174 123.092 116.174C123.971 116.174 124.615 115.952 125.025 115.51C125.436 115.067 125.641 114.452 125.641 113.664C125.641 113.365 125.595 113.081 125.504 112.814C125.413 112.541 125.257 112.303 125.035 112.102C124.82 111.893 124.527 111.73 124.156 111.613C123.785 111.496 123.32 111.438 122.76 111.438ZM135.123 114.797C134.817 114.797 134.553 114.855 134.332 114.973C134.111 115.09 133.922 115.259 133.766 115.48C133.616 115.702 133.495 115.969 133.404 116.281C133.32 116.594 133.258 116.945 133.219 117.336H136.471C136.62 117.336 136.718 117.313 136.764 117.268C136.816 117.215 136.842 117.121 136.842 116.984C136.842 116.789 136.816 116.568 136.764 116.32C136.712 116.066 136.617 115.829 136.48 115.607C136.35 115.38 136.174 115.188 135.953 115.031C135.732 114.875 135.455 114.797 135.123 114.797ZM139.176 117.629C139.117 117.694 139.033 117.766 138.922 117.844C138.811 117.922 138.691 117.997 138.561 118.068C138.43 118.14 138.297 118.208 138.16 118.273C138.03 118.339 137.913 118.391 137.809 118.43H133.189C133.202 118.898 133.264 119.331 133.375 119.729C133.492 120.119 133.655 120.458 133.863 120.744C134.072 121.031 134.322 121.255 134.615 121.418C134.915 121.574 135.257 121.652 135.641 121.652C135.842 121.652 136.038 121.643 136.227 121.623C136.422 121.597 136.63 121.542 136.852 121.457C137.079 121.372 137.333 121.255 137.613 121.105C137.893 120.949 138.225 120.738 138.609 120.471C138.648 120.49 138.694 120.529 138.746 120.588C138.805 120.646 138.857 120.712 138.902 120.783C138.954 120.848 139 120.91 139.039 120.969C139.078 121.027 139.104 121.07 139.117 121.096C138.668 121.551 138.264 121.923 137.906 122.209C137.548 122.495 137.203 122.72 136.871 122.883C136.546 123.039 136.22 123.146 135.895 123.205C135.569 123.264 135.211 123.293 134.82 123.293C134.267 123.293 133.743 123.182 133.248 122.961C132.76 122.74 132.33 122.427 131.959 122.023C131.594 121.62 131.305 121.135 131.09 120.568C130.875 120.002 130.768 119.374 130.768 118.684C130.768 117.798 130.934 117.01 131.266 116.32C131.604 115.624 132.109 115.031 132.779 114.543C132.949 114.419 133.137 114.302 133.346 114.191C133.561 114.074 133.782 113.977 134.01 113.898C134.244 113.814 134.485 113.749 134.732 113.703C134.98 113.651 135.227 113.625 135.475 113.625C136.113 113.625 136.663 113.736 137.125 113.957C137.594 114.178 137.978 114.475 138.277 114.846C138.583 115.21 138.808 115.633 138.951 116.115C139.101 116.597 139.176 117.102 139.176 117.629ZM148.541 121.145C148.118 121.626 147.727 122.01 147.369 122.297C147.011 122.577 146.669 122.792 146.344 122.941C146.025 123.091 145.715 123.186 145.416 123.225C145.117 123.27 144.814 123.293 144.508 123.293C143.98 123.293 143.473 123.189 142.984 122.98C142.496 122.766 142.063 122.46 141.686 122.062C141.314 121.665 141.015 121.18 140.787 120.607C140.566 120.035 140.455 119.387 140.455 118.664C140.455 117.961 140.585 117.303 140.846 116.691C141.106 116.079 141.467 115.549 141.93 115.1C142.398 114.644 142.955 114.286 143.6 114.025C144.244 113.758 144.954 113.625 145.729 113.625C145.943 113.625 146.184 113.645 146.451 113.684C146.725 113.716 146.992 113.768 147.252 113.84C147.512 113.905 147.75 113.986 147.965 114.084C148.186 114.175 148.352 114.279 148.463 114.396C148.469 114.449 148.46 114.54 148.434 114.67C148.414 114.8 148.382 114.95 148.336 115.119C148.297 115.288 148.248 115.467 148.189 115.656C148.131 115.845 148.072 116.024 148.014 116.193C147.955 116.363 147.896 116.516 147.838 116.652C147.779 116.789 147.73 116.887 147.691 116.945L147.037 116.848C146.822 116.21 146.559 115.718 146.246 115.373C145.934 115.021 145.517 114.846 144.996 114.846C144.71 114.846 144.433 114.911 144.166 115.041C143.906 115.171 143.674 115.38 143.473 115.666C143.271 115.946 143.108 116.307 142.984 116.75C142.861 117.193 142.799 117.73 142.799 118.361C142.799 118.882 142.864 119.348 142.994 119.758C143.131 120.161 143.313 120.503 143.541 120.783C143.775 121.063 144.049 121.278 144.361 121.428C144.674 121.577 145.006 121.652 145.357 121.652C145.54 121.652 145.715 121.643 145.885 121.623C146.054 121.597 146.24 121.545 146.441 121.467C146.643 121.389 146.868 121.275 147.115 121.125C147.369 120.975 147.669 120.773 148.014 120.52L148.541 121.145ZM160.113 121.906C159.872 122.062 159.605 122.222 159.312 122.385C159.026 122.548 158.746 122.697 158.473 122.834C158.206 122.971 157.965 123.081 157.75 123.166C157.542 123.251 157.398 123.293 157.32 123.293C157.203 123.293 157.089 123.27 156.979 123.225C156.874 123.186 156.773 123.107 156.676 122.99C156.585 122.867 156.503 122.701 156.432 122.492C156.36 122.277 156.305 122.004 156.266 121.672C155.862 122.023 155.497 122.307 155.172 122.521C154.853 122.73 154.56 122.893 154.293 123.01C154.033 123.127 153.792 123.202 153.57 123.234C153.349 123.273 153.134 123.293 152.926 123.293C152.62 123.293 152.32 123.251 152.027 123.166C151.734 123.081 151.471 122.928 151.236 122.707C151.002 122.479 150.813 122.17 150.67 121.779C150.527 121.389 150.455 120.887 150.455 120.275V116.271C150.455 115.959 150.449 115.718 150.436 115.549C150.429 115.373 150.387 115.243 150.309 115.158C150.237 115.067 150.12 115.005 149.957 114.973C149.801 114.94 149.573 114.908 149.273 114.875V114.191C149.599 114.165 149.895 114.136 150.162 114.104C150.436 114.071 150.696 114.035 150.943 113.996C151.191 113.951 151.435 113.898 151.676 113.84C151.923 113.781 152.184 113.71 152.457 113.625L152.799 114.074V119.66C152.799 120.064 152.822 120.393 152.867 120.646C152.919 120.9 152.994 121.099 153.092 121.242C153.189 121.379 153.307 121.473 153.443 121.525C153.587 121.577 153.749 121.604 153.932 121.604C154.068 121.604 154.215 121.587 154.371 121.555C154.534 121.522 154.71 121.464 154.898 121.379C155.094 121.288 155.302 121.167 155.523 121.018C155.751 120.868 155.999 120.676 156.266 120.441V116.271C156.266 115.979 156.253 115.744 156.227 115.568C156.207 115.393 156.155 115.256 156.07 115.158C155.986 115.061 155.855 114.992 155.68 114.953C155.51 114.914 155.276 114.888 154.977 114.875V114.191C155.628 114.133 156.217 114.055 156.744 113.957C157.278 113.853 157.779 113.742 158.248 113.625L158.609 114.074V120.227C158.609 120.428 158.613 120.598 158.619 120.734C158.626 120.865 158.635 120.975 158.648 121.066C158.668 121.151 158.691 121.219 158.717 121.271C158.749 121.324 158.788 121.366 158.834 121.398C158.912 121.451 159.02 121.464 159.156 121.438C159.299 121.405 159.537 121.317 159.869 121.174L160.113 121.906ZM168.756 114.055C168.795 114.081 168.814 114.165 168.814 114.309C168.814 114.445 168.798 114.615 168.766 114.816C168.74 115.018 168.701 115.243 168.648 115.49C168.596 115.738 168.541 115.979 168.482 116.213C168.424 116.447 168.362 116.665 168.297 116.867C168.232 117.069 168.173 117.229 168.121 117.346H167.408C167.389 117.085 167.35 116.838 167.291 116.604C167.232 116.369 167.158 116.167 167.066 115.998C166.982 115.822 166.874 115.686 166.744 115.588C166.62 115.484 166.48 115.432 166.324 115.432C166.194 115.432 166.051 115.458 165.895 115.51C165.745 115.555 165.585 115.65 165.416 115.793C165.247 115.93 165.068 116.128 164.879 116.389C164.697 116.649 164.508 116.994 164.312 117.424V121.691C164.312 121.789 164.446 121.89 164.713 121.994C164.986 122.098 165.429 122.196 166.041 122.287V123H160.68V122.287C161.539 122.092 161.969 121.893 161.969 121.691V116.516C161.969 116.301 161.962 116.122 161.949 115.979C161.936 115.829 161.92 115.708 161.9 115.617C161.881 115.526 161.855 115.454 161.822 115.402C161.796 115.35 161.77 115.308 161.744 115.275C161.699 115.23 161.65 115.194 161.598 115.168C161.552 115.135 161.49 115.109 161.412 115.09C161.34 115.07 161.246 115.057 161.129 115.051C161.012 115.038 160.862 115.025 160.68 115.012V114.328C161.038 114.276 161.347 114.227 161.607 114.182C161.874 114.136 162.122 114.087 162.35 114.035C162.577 113.983 162.799 113.924 163.014 113.859C163.235 113.794 163.482 113.716 163.756 113.625L164.166 114.035L164.293 115.451C164.469 115.197 164.667 114.96 164.889 114.738C165.11 114.517 165.344 114.325 165.592 114.162C165.846 113.993 166.109 113.863 166.383 113.771C166.656 113.674 166.933 113.625 167.213 113.625C167.46 113.625 167.717 113.664 167.984 113.742C168.258 113.814 168.515 113.918 168.756 114.055ZM176.734 120.236C176.734 120.699 176.663 121.096 176.52 121.428C176.383 121.753 176.201 122.03 175.973 122.258C175.751 122.486 175.501 122.668 175.221 122.805C174.941 122.941 174.654 123.046 174.361 123.117C174.075 123.189 173.798 123.234 173.531 123.254C173.271 123.28 173.046 123.293 172.857 123.293C172.649 123.293 172.421 123.277 172.174 123.244C171.933 123.218 171.686 123.176 171.432 123.117C171.178 123.059 170.924 122.984 170.67 122.893C170.423 122.801 170.191 122.697 169.977 122.58C169.931 122.561 169.895 122.447 169.869 122.238C169.85 122.023 169.843 121.77 169.85 121.477C169.856 121.184 169.872 120.878 169.898 120.559C169.931 120.24 169.98 119.96 170.045 119.719L170.836 119.826C170.901 120.171 171.008 120.484 171.158 120.764C171.308 121.044 171.487 121.281 171.695 121.477C171.904 121.672 172.135 121.825 172.389 121.936C172.649 122.04 172.919 122.092 173.199 122.092C173.668 122.092 174.016 122.007 174.244 121.838C174.472 121.669 174.586 121.389 174.586 120.998C174.586 120.738 174.518 120.503 174.381 120.295C174.251 120.087 174.075 119.895 173.854 119.719C173.632 119.543 173.382 119.38 173.102 119.23C172.822 119.074 172.532 118.918 172.232 118.762C171.959 118.625 171.686 118.475 171.412 118.312C171.145 118.143 170.904 117.958 170.689 117.756C170.475 117.548 170.299 117.32 170.162 117.072C170.025 116.825 169.957 116.545 169.957 116.232C169.957 115.829 170.055 115.467 170.25 115.148C170.452 114.823 170.715 114.549 171.041 114.328C171.367 114.1 171.738 113.928 172.154 113.811C172.571 113.687 173.001 113.625 173.443 113.625C173.723 113.625 174.003 113.645 174.283 113.684C174.57 113.716 174.843 113.765 175.104 113.83C175.364 113.895 175.605 113.973 175.826 114.064C176.048 114.156 176.233 114.26 176.383 114.377C176.422 114.41 176.428 114.52 176.402 114.709C176.383 114.891 176.34 115.1 176.275 115.334C176.217 115.562 176.145 115.786 176.061 116.008C175.976 116.229 175.895 116.392 175.816 116.496L175.143 116.418C174.98 115.845 174.745 115.409 174.439 115.109C174.133 114.803 173.766 114.65 173.336 114.65C172.945 114.65 172.643 114.742 172.428 114.924C172.213 115.1 172.105 115.324 172.105 115.598C172.105 115.806 172.158 115.992 172.262 116.154C172.366 116.317 172.512 116.47 172.701 116.613C172.896 116.757 173.131 116.903 173.404 117.053C173.684 117.196 173.997 117.359 174.342 117.541C174.622 117.684 174.905 117.837 175.191 118C175.478 118.163 175.735 118.352 175.963 118.566C176.191 118.775 176.376 119.016 176.52 119.289C176.663 119.556 176.734 119.872 176.734 120.236ZM184.879 118.703C184.879 118.189 184.824 117.701 184.713 117.238C184.609 116.77 184.459 116.359 184.264 116.008C184.068 115.65 183.831 115.367 183.551 115.158C183.277 114.95 182.975 114.846 182.643 114.846C182.239 114.846 181.904 114.937 181.637 115.119C181.37 115.295 181.158 115.542 181.002 115.861C180.846 116.174 180.735 116.548 180.67 116.984C180.611 117.414 180.582 117.88 180.582 118.381C180.582 118.895 180.641 119.377 180.758 119.826C180.882 120.275 181.044 120.666 181.246 120.998C181.454 121.33 181.692 121.594 181.959 121.789C182.232 121.978 182.519 122.072 182.818 122.072C183.209 122.072 183.535 121.997 183.795 121.848C184.055 121.698 184.267 121.48 184.43 121.193C184.592 120.907 184.706 120.555 184.771 120.139C184.843 119.722 184.879 119.243 184.879 118.703ZM187.34 118.264C187.34 118.7 187.281 119.126 187.164 119.543C187.047 119.96 186.881 120.354 186.666 120.725C186.458 121.096 186.207 121.441 185.914 121.76C185.621 122.072 185.296 122.342 184.938 122.57C184.586 122.798 184.205 122.974 183.795 123.098C183.391 123.228 182.975 123.293 182.545 123.293C181.874 123.293 181.266 123.176 180.719 122.941C180.172 122.707 179.706 122.385 179.322 121.975C178.938 121.564 178.639 121.076 178.424 120.51C178.215 119.943 178.111 119.328 178.111 118.664C178.111 118.02 178.229 117.395 178.463 116.789C178.704 116.184 179.036 115.646 179.459 115.178C179.889 114.709 180.396 114.335 180.982 114.055C181.575 113.768 182.223 113.625 182.926 113.625C183.59 113.625 184.192 113.742 184.732 113.977C185.279 114.211 185.745 114.536 186.129 114.953C186.52 115.363 186.819 115.852 187.027 116.418C187.236 116.984 187.34 117.6 187.34 118.264ZM195.621 120.236C195.621 120.699 195.549 121.096 195.406 121.428C195.27 121.753 195.087 122.03 194.859 122.258C194.638 122.486 194.387 122.668 194.107 122.805C193.827 122.941 193.541 123.046 193.248 123.117C192.962 123.189 192.685 123.234 192.418 123.254C192.158 123.28 191.933 123.293 191.744 123.293C191.536 123.293 191.308 123.277 191.061 123.244C190.82 123.218 190.572 123.176 190.318 123.117C190.064 123.059 189.811 122.984 189.557 122.893C189.309 122.801 189.078 122.697 188.863 122.58C188.818 122.561 188.782 122.447 188.756 122.238C188.736 122.023 188.73 121.77 188.736 121.477C188.743 121.184 188.759 120.878 188.785 120.559C188.818 120.24 188.867 119.96 188.932 119.719L189.723 119.826C189.788 120.171 189.895 120.484 190.045 120.764C190.195 121.044 190.374 121.281 190.582 121.477C190.79 121.672 191.021 121.825 191.275 121.936C191.536 122.04 191.806 122.092 192.086 122.092C192.555 122.092 192.903 122.007 193.131 121.838C193.359 121.669 193.473 121.389 193.473 120.998C193.473 120.738 193.404 120.503 193.268 120.295C193.137 120.087 192.962 119.895 192.74 119.719C192.519 119.543 192.268 119.38 191.988 119.23C191.708 119.074 191.419 118.918 191.119 118.762C190.846 118.625 190.572 118.475 190.299 118.312C190.032 118.143 189.791 117.958 189.576 117.756C189.361 117.548 189.186 117.32 189.049 117.072C188.912 116.825 188.844 116.545 188.844 116.232C188.844 115.829 188.941 115.467 189.137 115.148C189.339 114.823 189.602 114.549 189.928 114.328C190.253 114.1 190.624 113.928 191.041 113.811C191.458 113.687 191.887 113.625 192.33 113.625C192.61 113.625 192.89 113.645 193.17 113.684C193.456 113.716 193.73 113.765 193.99 113.83C194.251 113.895 194.492 113.973 194.713 114.064C194.934 114.156 195.12 114.26 195.27 114.377C195.309 114.41 195.315 114.52 195.289 114.709C195.27 114.891 195.227 115.1 195.162 115.334C195.104 115.562 195.032 115.786 194.947 116.008C194.863 116.229 194.781 116.392 194.703 116.496L194.029 116.418C193.867 115.845 193.632 115.409 193.326 115.109C193.02 114.803 192.652 114.65 192.223 114.65C191.832 114.65 191.529 114.742 191.314 114.924C191.1 115.1 190.992 115.324 190.992 115.598C190.992 115.806 191.044 115.992 191.148 116.154C191.253 116.317 191.399 116.47 191.588 116.613C191.783 116.757 192.018 116.903 192.291 117.053C192.571 117.196 192.883 117.359 193.229 117.541C193.508 117.684 193.792 117.837 194.078 118C194.365 118.163 194.622 118.352 194.85 118.566C195.077 118.775 195.263 119.016 195.406 119.289C195.549 119.556 195.621 119.872 195.621 120.236Z" fill="#515DC5"/>
</g>
<defs>
<filter id="filter0_d_0_1" x="0.292969" y="107.863" width="199.328" height="23.4297" filterUnits="userSpaceOnUse" color-interpolation-filters="sRGB">
<feFlood flood-opacity="0" result="BackgroundImageFix"/>
<feColorMatrix in="SourceAlpha" type="matrix" values="0 0 0 0 0 0 0 0 0 0 0 0 0 0 0 0 0 0 127 0" result="hardAlpha"/>
<feOffset dy="4"/>
<feGaussianBlur stdDeviation="2"/>
<feComposite in2="hardAlpha" operator="out"/>
<feColorMatrix type="matrix" values="0 0 0 0 0 0 0 0 0 0 0 0 0 0 0 0 0 0 0.25 0"/>
<feBlend mode="normal" in2="BackgroundImageFix" result="effect1_dropShadow_0_1"/>
<feBlend mode="normal" in="SourceGraphic" in2="effect1_dropShadow_0_1" result="shape"/>
</filter>
</defs>
</svg>
